grf
version=1
nRows=11
nColumns=73
inDegrees=yes
endheader
time	ground_force_1_vx	ground_force_1_vy	ground_force_1_vz	ground_force_1_px	ground_force_1_py	ground_force_1_pz	ground_moment_1_mx	ground_moment_1_my	ground_moment_1_mz	ground_force_2_vx	ground_force_2_vy	ground_force_2_vz	ground_force_2_px	ground_force_2_py	ground_force_2_pz	ground_moment_2_mx	ground_moment_2_my	ground_moment_2_mz	ground_force_3_vx	ground_force_3_vy	ground_force_3_vz	ground_force_3_px	ground_force_3_py	ground_force_3_pz	ground_moment_3_mx	ground_moment_3_my	ground_moment_3_mz	ground_force_4_vx	ground_force_4_vy	ground_force_4_vz	ground_force_4_px	ground_force_4_py	ground_force_4_pz	ground_moment_4_mx	ground_moment_4_my	ground_moment_4_mz	ground_force_5_vx	ground_force_5_vy	ground_force_5_vz	ground_force_5_px	ground_force_5_py	ground_force_5_pz	ground_moment_5_mx	ground_moment_5_my	ground_moment_5_mz	ground_force_6_vx	ground_force_6_vy	ground_force_6_vz	ground_force_6_px	ground_force_6_py	ground_force_6_pz	ground_moment_6_mx	ground_moment_6_my	ground_moment_6_mz	ground_force_7_vx	ground_force_7_vy	ground_force_7_vz	ground_force_7_px	ground_force_7_py	ground_force_7_pz	ground_moment_7_mx	ground_moment_7_my	ground_moment_7_mz	ground_force_8_vx	ground_force_8_vy	ground_force_8_vz	ground_force_8_px	ground_force_8_py	ground_force_8_pz	ground_moment_8_mx	ground_moment_8_my	ground_moment_8_mz
1.185000	0.647067	443.296622	4.839716	0.402971	0.000000	0.338587	0.000000	-1.539410	0.000000	0.000000	0.000000	0.000000	0.000000	0.000000	0.000000	0.000000	0.000000	0.000000	-13.797534	338.406168	7.462637	0.435016	0.000000	0.341892	0.000000	-1.233090	-0.000000	14.462983	104.924867	-2.624895	0.308690	0.000000	0.336631	-0.000000	0.143799	0.000000	-14.297698	332.462132	7.149966	0.435788	0.000000	0.339180	-0.000000	-1.175653	0.000000	14.770499	107.581573	-2.414078	0.312288	0.000000	0.339570	-0.000000	0.083355	0.000000	0.839105	436.967655	4.099060	0.404791	0.000000	0.338853	0.000000	-1.478822	0.000000	0.000000	0.000000	0.000000	0.000000	0.000000	0.000000	0.000000	0.000000	0.000000
1.186000	0.640894	443.904078	4.791860	0.402364	0.000000	0.338596	0.000000	-1.559378	0.000000	0.000000	0.000000	0.000000	0.000000	0.000000	0.000000	0.000000	0.000000	0.000000	-13.693964	340.130731	7.566080	0.434087	0.000000	0.341920	0.000000	-1.250829	-0.000000	14.353099	103.805181	-2.776052	0.307801	0.000000	0.336554	-0.000000	0.157253	0.000000	-14.176079	334.085499	7.249018	0.434916	0.000000	0.339208	0.000000	-1.197169	0.000000	14.674800	106.562876	-2.569779	0.311227	0.000000	0.339553	-0.000000	0.097762	0.000000	0.865363	437.572687	4.042485	0.404181	0.000000	0.338881	0.000000	-1.500872	0.000000	0.000000	0.000000	0.000000	0.000000	0.000000	0.000000	0.000000	0.000000	0.000000
1.187000	0.619265	444.511598	4.744462	0.401770	0.000000	0.338600	0.000000	-1.578061	0.000000	0.000000	0.000000	0.000000	0.000000	0.000000	0.000000	0.000000	0.000000	0.000000	-13.596309	341.883688	7.667711	0.433147	0.000000	0.341944	0.000000	-1.265897	-0.000000	14.233409	102.657044	-2.924931	0.306975	0.000000	0.336462	-0.000000	0.169023	0.000000	-14.056186	335.742641	7.348356	0.434019	0.000000	0.339233	0.000000	-1.217937	0.000000	14.571173	105.505450	-2.722008	0.310217	0.000000	0.339521	-0.000000	0.111579	0.000000	0.881932	438.172813	3.989705	0.403570	0.000000	0.338904	0.000000	-1.522466	0.000000	0.000000	0.000000	0.000000	0.000000	0.000000	0.000000	0.000000	0.000000	0.000000
1.188000	0.581417	445.118917	4.694911	0.401189	0.000000	0.338599	0.000000	-1.595395	0.000000	0.000000	0.000000	0.000000	0.000000	0.000000	0.000000	0.000000	0.000000	0.000000	-13.504868	343.659275	7.766483	0.432202	0.000000	0.341964	0.000000	-1.277654	-0.000000	14.103492	101.486004	-3.073090	0.306215	0.000000	0.336354	-0.000000	0.178637	-0.000000	-13.940546	337.431009	7.446600	0.433103	0.000000	0.339254	0.000000	-1.237075	0.000000	14.459062	104.414060	-2.871030	0.309264	0.000000	0.339475	-0.000000	0.124323	0.000000	0.885727	438.770235	3.939065	0.402962	0.000000	0.338921	0.000000	-1.543176	0.000000	0.000000	0.000000	0.000000	0.000000	0.000000	0.000000	0.000000	0.000000	0.000000
1.189000	0.528060	445.726051	4.640713	0.400625	0.000000	0.338592	0.000000	-1.611518	0.000000	0.000000	0.000000	0.000000	0.000000	0.000000	0.000000	0.000000	0.000000	0.000000	-13.418880	345.451848	7.861682	0.431255	0.000000	0.341981	0.000000	-1.285730	-0.000000	13.963339	100.297760	-3.222317	0.305530	0.000000	0.336229	-0.000000	0.185714	-0.000000	-13.830981	339.147850	7.543052	0.432174	0.000000	0.339273	0.000000	-1.253821	0.000000	14.337755	103.293266	-3.017609	0.308371	0.000000	0.339413	-0.000000	0.135583	0.000000	0.874215	439.366748	3.889099	0.402361	0.000000	0.338934	0.000000	-1.562702	0.000000	0.000000	0.000000	0.000000	0.000000	0.000000	0.000000	0.000000	0.000000	0.000000
1.190000	0.461322	446.334125	4.580472	0.400082	0.000000	0.338579	0.000000	-1.626603	0.000000	0.000000	0.000000	0.000000	0.000000	0.000000	0.000000	0.000000	0.000000	0.000000	-13.336654	347.256421	7.953172	0.430312	0.000000	0.341994	0.000000	-1.290122	0.000000	13.813424	99.098457	-3.373877	0.304925	0.000000	0.336087	-0.000000	0.190151	-0.000000	-13.728445	340.889195	7.636951	0.431237	0.000000	0.339289	0.000000	-1.267495	0.000000	14.206745	102.147586	-3.163191	0.307548	0.000000	0.339333	-0.000000	0.144928	0.000000	0.845940	439.962893	3.837593	0.401772	0.000000	0.338942	0.000000	-1.580915	0.000000	0.000000	0.000000	0.000000	0.000000	0.000000	0.000000	0.000000	0.000000	0.000000
1.191000	0.383887	446.944883	4.513915	0.399563	0.000000	0.338560	0.000000	-1.640484	0.000000	0.000000	0.000000	0.000000	0.000000	0.000000	0.000000	0.000000	0.000000	0.000000	-13.256310	349.067979	8.040783	0.429378	0.000000	0.342003	0.000000	-1.291035	0.000000	13.654584	97.894878	-3.527878	0.304405	0.000000	0.335930	-0.000000	0.192261	-0.000000	-13.632904	342.650379	7.727621	0.430297	0.000000	0.339304	0.000000	-1.277617	0.000000	14.065843	100.981860	-3.309570	0.306801	0.000000	0.339234	-0.000000	0.151952	0.000000	0.800748	440.558831	3.782072	0.401199	0.000000	0.338945	0.000000	-1.597886	0.000000	0.000000	0.000000	0.000000	0.000000	0.000000	0.000000	0.000000	0.000000	0.000000
1.192000	0.297851	447.560013	4.441584	0.399071	0.000000	0.338539	0.000000	-1.652524	0.000000	0.000000	0.000000	0.000000	0.000000	0.000000	0.000000	0.000000	0.000000	0.000000	-13.176540	350.880934	8.124014	0.428457	0.000000	0.342010	0.000000	-1.288677	0.000000	13.487642	96.694325	-3.683286	0.303971	0.000000	0.335764	-0.000000	0.192698	-0.000000	-13.543259	344.427104	7.814972	0.429361	0.000000	0.339317	0.000000	-1.284075	0.000000	13.915288	99.801836	-3.458183	0.306137	0.000000	0.339114	0.000000	0.156461	0.000000	0.739980	441.156010	3.721003	0.400647	0.000000	0.338943	0.000000	-1.613809	0.000000	0.000000	0.000000	0.000000	0.000000	0.000000	0.000000	0.000000	0.000000	0.000000
1.193000	0.204543	448.180971	4.364895	0.398604	0.000000	0.338515	0.000000	-1.661938	0.000000	0.000000	0.000000	0.000000	0.000000	0.000000	0.000000	0.000000	0.000000	0.000000	-13.096483	352.689453	8.202761	0.427554	0.000000	0.342015	0.000000	-1.283233	0.000000	13.313094	95.504105	-3.838584	0.303620	0.000000	0.335593	-0.000000	0.192208	-0.000000	-13.457790	346.215309	7.899134	0.428435	0.000000	0.339330	0.000000	-1.287033	0.000000	13.755732	98.614379	-3.609401	0.305561	0.000000	0.338975	0.000000	0.158651	0.000000	0.666011	441.757223	3.654143	0.400120	0.000000	0.338936	0.000000	-1.628659	0.000000	0.000000	0.000000	0.000000	0.000000	0.000000	0.000000	0.000000	0.000000	0.000000
1.194000	0.105373	448.808699	4.286085	0.398165	0.000000	0.338490	0.000000	-1.668193	0.000000	0.000000	0.000000	0.000000	0.000000	0.000000	0.000000	0.000000	0.000000	0.000000	-13.015024	354.487604	8.277942	0.426671	0.000000	0.342019	0.000000	-1.274920	0.000000	13.131263	94.331111	-3.992453	0.303351	0.000000	0.335420	-0.000000	0.191382	-0.000000	-13.375080	348.010393	7.979784	0.427525	0.000000	0.339342	0.000000	-1.286689	0.000000	13.587912	97.427015	-3.762358	0.305071	0.000000	0.338820	0.000000	0.159101	0.000000	0.580997	442.365395	3.582031	0.399621	0.000000	0.338926	0.000000	-1.641915	0.000000	0.000000	0.000000	0.000000	0.000000	0.000000	0.000000	0.000000	0.000000	0.000000
1.195000	0.002575	449.443191	4.207513	0.397750	0.000000	0.338465	0.000000	-1.671151	0.000000	0.000000	0.000000	0.000000	0.000000	0.000000	0.000000	0.000000	0.000000	0.000000	-12.930471	356.268818	8.351118	0.425811	0.000000	0.342020	0.000000	-1.264002	0.000000	12.942710	93.181923	-4.144097	0.303159	0.000000	0.335246	-0.000000	0.190558	-0.000000	-13.294344	349.807296	8.056551	0.426636	0.000000	0.339355	0.000000	-1.283188	0.000000	13.412294	96.247307	-3.915526	0.304667	0.000000	0.338654	0.000000	0.158550	0.000000	0.486192	442.983020	3.505821	0.399152	0.000000	0.338913	0.000000	-1.652787	0.000000	0.000000	0.000000	0.000000	0.000000	0.000000	0.000000	0.000000	0.000000	0.000000
